<svg id="visual" viewBox="0 0 900 600" width="900" height="600" xmlns="http://www.w3.org/2000/svg" xmlns:xlink="http://www.w3.org/1999/xlink" version="1.1"><rect x="0" y="0" width="900" height="600" fill="#002233"></rect><path d="M0 348L25 355.3C50 362.7 100 377.3 150 370.7C200 364 250 336 300 311C350 286 400 264 450 272.5C500 281 550 320 600 348.8C650 377.7 700 396.3 750 381.2C800 366 850 317 875 292.5L900 268L900 601L875 601C850 601 800 601 750 601C700 601 650 601 600 601C550 601 500 601 450 601C400 601 350 601 300 601C250 601 200 601 150 601C100 601 50 601 25 601L0 601Z" fill="#F7770F" stroke-linecap="round" stroke-linejoin="miter"></path></svg>